{
	"asset":{
		"version":"2.0",
		"generator":"Houdini GLTF 2.0 Exporter"
	},
	"accessors":[
		{
			"bufferView":0,
			"componentType":5121,
			"count":36,
			"type":"SCALAR",
			"min":[0
			],
			"max":[7
			]
		},
		{
			"bufferView":1,
			"componentType":5126,
			"count":8,
			"type":"VEC3",
			"min":[-0.503145754,-0.503145754,-0.399477571
			],
			"max":[0.399477571,0.46080339,0.503145754
			]
		},
		{
			"bufferView":2,
			"componentType":5126,
			"count":8,
			"type":"VEC3",
			"min":[0,0,0
			],
			"max":[1,1,1
			]
		}
	],
	"buffers":[
		{
			"uri":"output_data.bin",
			"byteLength":228,
			"name":"main_buffer"
		}
	],
	"bufferViews":[
		{
			"buffer":0,
			"byteLength":36,
			"target":34963
		},
		{
			"buffer":0,
			"byteOffset":36,
			"byteLength":96,
			"target":34962
		},
		{
			"buffer":0,
			"byteOffset":132,
			"byteLength":96,
			"target":34962
		}
	],
	"nodes":[
		{
			"name":"geo1",
			"mesh":0
		}
	],
	"meshes":[
		{
			"primitives":[
				{
					"attributes":{
						"COLOR_0":2,
						"POSITION":1
					},
					"indices":0
				}
			]
		}
	],
	"scenes":[
		{
			"nodes":[0
			]
		}
	],
	"scene":0
}
